<svg xmlns="http://www.w3.org/2000/svg" width="780" height="540" viewBox="0 0 780 540">
<rect x="0" y="0" width="100%" height="100%" fill="white"/>
<line x1="130" y1="80" x2="530" y2="80" stroke="#111" stroke-width="2"/>
<line x1="130" y1="80" x2="530" y2="160" stroke="#111" stroke-width="2"/>
<line x1="130" y1="80" x2="530" y2="240" stroke="#111" stroke-width="2"/>
<line x1="130" y1="80" x2="530" y2="320" stroke="#111" stroke-width="2"/>
<line x1="130" y1="160" x2="530" y2="320" stroke="#111" stroke-width="2"/>
<line x1="130" y1="240" x2="530" y2="320" stroke="#111" stroke-width="2"/>
<line x1="130" y1="320" x2="530" y2="400" stroke="#111" stroke-width="2"/>
<line x1="130" y1="400" x2="530" y2="400" stroke="#111" stroke-width="2"/>
<circle cx="130" cy="80" r="24" fill="#8ecae6" stroke="black" stroke-width="1.5"/>
<text x="130" y="86" text-anchor="middle" font-size="16" font-family="Arial">a1</text>
<circle cx="130" cy="160" r="24" fill="#8ecae6" stroke="black" stroke-width="1.5"/>
<text x="130" y="166" text-anchor="middle" font-size="16" font-family="Arial">a2</text>
<circle cx="130" cy="240" r="24" fill="#8ecae6" stroke="black" stroke-width="1.5"/>
<text x="130" y="246" text-anchor="middle" font-size="16" font-family="Arial">a3</text>
<circle cx="130" cy="320" r="24" fill="#8ecae6" stroke="black" stroke-width="1.5"/>
<text x="130" y="326" text-anchor="middle" font-size="16" font-family="Arial">a4</text>
<circle cx="130" cy="400" r="24" fill="#8ecae6" stroke="black" stroke-width="1.5"/>
<text x="130" y="406" text-anchor="middle" font-size="16" font-family="Arial">a5</text>
<circle cx="530" cy="80" r="24" fill="#ffb703" stroke="black" stroke-width="1.5"/>
<text x="530" y="86" text-anchor="middle" font-size="16" font-family="Arial">b1</text>
<circle cx="530" cy="160" r="24" fill="#ffb703" stroke="black" stroke-width="1.5"/>
<text x="530" y="166" text-anchor="middle" font-size="16" font-family="Arial">b2</text>
<circle cx="530" cy="240" r="24" fill="#ffb703" stroke="black" stroke-width="1.5"/>
<text x="530" y="246" text-anchor="middle" font-size="16" font-family="Arial">b3</text>
<circle cx="530" cy="320" r="24" fill="#ffb703" stroke="black" stroke-width="1.5"/>
<text x="530" y="326" text-anchor="middle" font-size="16" font-family="Arial">b4</text>
<circle cx="530" cy="400" r="24" fill="#ffb703" stroke="black" stroke-width="1.5"/>
<text x="530" y="406" text-anchor="middle" font-size="16" font-family="Arial">b5</text>
</svg>